<svg width="1600" height="980" viewBox="0 0 1600 980" fill="none" xmlns="http://www.w3.org/2000/svg">
  <rect width="1600" height="980" rx="36" fill="#EEE3D0"/>
  <rect x="38" y="38" width="1524" height="904" rx="28" fill="#FAF5EC" stroke="#D9C7B3"/>
  <rect x="76" y="72" width="1448" height="74" rx="22" fill="#FFF9F0" stroke="#E4D5C3"/>
  <circle cx="118" cy="109" r="12" fill="#F08B48"/>
  <text x="146" y="118" fill="#1A241F" font-family="Arial, sans-serif" font-size="34" font-weight="700">SaveEats</text>
  <rect x="1232" y="88" width="128" height="42" rx="21" fill="#EDE3D2"/>
  <text x="1268" y="115" fill="#223028" font-family="Arial, sans-serif" font-size="20" font-weight="700">Light</text>
  <rect x="1380" y="88" width="108" height="42" rx="21" fill="#DB6A2A"/>
  <text x="1409" y="115" fill="#FFF8F1" font-family="Arial, sans-serif" font-size="20" font-weight="700">Live</text>

  <rect x="76" y="180" width="1448" height="198" rx="28" fill="#16201C"/>
  <text x="118" y="230" fill="#CDBBA8" font-family="Arial, sans-serif" font-size="20" letter-spacing="4">OPERATIONS COMMAND</text>
  <text x="118" y="318" fill="#FFF8F1" font-family="Arial, sans-serif" font-size="70" font-weight="700">SaveEats ops center</text>
  <text x="118" y="358" fill="#D7C8B8" font-family="Arial, sans-serif" font-size="26">Forecast demand, protect margin, and keep service balanced.</text>

  <rect x="1068" y="216" width="144" height="122" rx="22" fill="#FFF8F1" fill-opacity="0.09" stroke="#FFF8F1" stroke-opacity="0.12"/>
  <rect x="1232" y="216" width="122" height="122" rx="22" fill="#FFF8F1" fill-opacity="0.09" stroke="#FFF8F1" stroke-opacity="0.12"/>
  <rect x="1372" y="216" width="114" height="122" rx="22" fill="#FFF8F1" fill-opacity="0.09" stroke="#FFF8F1" stroke-opacity="0.12"/>
  <text x="1096" y="252" fill="#D7C8B8" font-family="Arial, sans-serif" font-size="16">FORECAST</text>
  <text x="1096" y="306" fill="#FFF8F1" font-family="Arial, sans-serif" font-size="38" font-weight="700">142</text>
  <text x="1256" y="252" fill="#D7C8B8" font-family="Arial, sans-serif" font-size="16">WASTE</text>
  <text x="1256" y="306" fill="#FFF8F1" font-family="Arial, sans-serif" font-size="38" font-weight="700">7%</text>
  <text x="1396" y="252" fill="#D7C8B8" font-family="Arial, sans-serif" font-size="16">SAVED</text>
  <text x="1396" y="306" fill="#FFF8F1" font-family="Arial, sans-serif" font-size="34" font-weight="700">18kg</text>

  <rect x="76" y="412" width="320" height="490" rx="28" fill="#1B2621"/>
  <text x="114" y="456" fill="#CDBBA8" font-family="Arial, sans-serif" font-size="18" letter-spacing="4">FORECAST MODEL</text>
  <text x="114" y="504" fill="#FFF8F1" font-family="Arial, sans-serif" font-size="34" font-weight="700">Plan today's service</text>
  <rect x="114" y="542" width="82" height="38" rx="19" fill="#FFF8F1"/>
  <rect x="206" y="542" width="84" height="38" rx="19" fill="#FFF8F1" fill-opacity="0.08"/>
  <rect x="300" y="542" width="58" height="38" rx="19" fill="#FFF8F1" fill-opacity="0.08"/>
  <text x="136" y="567" fill="#1B2621" font-family="Arial, sans-serif" font-size="17" font-weight="700">Bistro</text>
  <text x="229" y="567" fill="#FFF8F1" font-family="Arial, sans-serif" font-size="17" font-weight="700">Truck</text>
  <text x="314" y="567" fill="#FFF8F1" font-family="Arial, sans-serif" font-size="17" font-weight="700">Cafe</text>
  <rect x="114" y="620" width="244" height="56" rx="16" fill="#FFF8F1" fill-opacity="0.08"/>
  <rect x="114" y="694" width="244" height="56" rx="16" fill="#FFF8F1" fill-opacity="0.08"/>
  <rect x="114" y="768" width="244" height="56" rx="16" fill="#FFF8F1" fill-opacity="0.08"/>
  <rect x="114" y="846" width="244" height="18" rx="9" fill="#DB6A2A"/>

  <rect x="432" y="412" width="1092" height="118" rx="24" fill="#FFF9F0" stroke="#E4D5C3"/>
  <rect x="460" y="440" width="324" height="62" rx="18" fill="#FFF1E4"/>
  <rect x="816" y="440" width="324" height="62" rx="18" fill="#EAF6EE"/>
  <rect x="1172" y="440" width="324" height="62" rx="18" fill="#F5EEE5"/>
  <text x="488" y="466" fill="#6A5F53" font-family="Arial, sans-serif" font-size="16">FORECASTED ORDERS</text>
  <text x="488" y="496" fill="#1A241F" font-family="Arial, sans-serif" font-size="34" font-weight="700">142</text>
  <text x="844" y="466" fill="#6A5F53" font-family="Arial, sans-serif" font-size="16">CONFIDENCE</text>
  <text x="844" y="496" fill="#1A241F" font-family="Arial, sans-serif" font-size="34" font-weight="700">89%</text>
  <text x="1200" y="466" fill="#6A5F53" font-family="Arial, sans-serif" font-size="16">WASTE PROBABILITY</text>
  <text x="1200" y="496" fill="#1A241F" font-family="Arial, sans-serif" font-size="34" font-weight="700">7%</text>

  <rect x="432" y="564" width="642" height="338" rx="24" fill="#FFF9F0" stroke="#E4D5C3"/>
  <text x="466" y="610" fill="#6A5F53" font-family="Arial, sans-serif" font-size="18" letter-spacing="3">SERVICE WINDOW FORECAST</text>
  <rect x="494" y="754" width="48" height="92" rx="16" fill="#F5B56D"/>
  <rect x="582" y="694" width="48" height="152" rx="16" fill="#ED8A47"/>
  <rect x="670" y="770" width="48" height="76" rx="16" fill="#F5C17E"/>
  <rect x="758" y="720" width="48" height="126" rx="16" fill="#E87332"/>
  <rect x="846" y="646" width="48" height="200" rx="16" fill="#D96427"/>
  <rect x="934" y="706" width="48" height="140" rx="16" fill="#C35520"/>

  <rect x="1104" y="564" width="420" height="338" rx="24" fill="#FFF9F0" stroke="#E4D5C3"/>
  <text x="1138" y="610" fill="#6A5F53" font-family="Arial, sans-serif" font-size="18" letter-spacing="3">BILLING &amp; SUBSCRIPTION</text>
  <rect x="1138" y="642" width="160" height="88" rx="18" fill="#FFF1E4"/>
  <rect x="1318" y="642" width="160" height="88" rx="18" fill="#F0F7F3"/>
  <rect x="1138" y="748" width="340" height="54" rx="16" fill="#FAF1E6"/>
  <rect x="1138" y="820" width="112" height="38" rx="19" fill="#1A241F"/>
  <rect x="1262" y="820" width="108" height="38" rx="19" fill="#E9DED0"/>
  <rect x="1382" y="820" width="96" height="38" rx="19" fill="#E9DED0"/>
</svg>
